<svg width="29" height="29" viewBox="0 0 29 29" fill="none" xmlns="http://www.w3.org/2000/svg">
<g filter="url(#filter0_d_3483_54987)">
<path d="M12.586 1.89541C13.4384 1.00735 14.8587 1.00735 15.7112 1.89541L15.8792 2.07044C16.4099 2.62337 17.1934 2.85463 17.9394 2.67854L18.1713 2.62379C19.3644 2.34216 20.5533 3.10593 20.7931 4.30815L20.849 4.58809C20.9976 5.33319 21.5257 5.94593 22.2408 6.20282L22.5019 6.29663C23.6468 6.70797 24.2285 7.98134 23.7898 9.11609L23.6757 9.4113C23.4038 10.1148 23.5174 10.9092 23.9756 11.5083L24.1665 11.7578C24.9041 12.722 24.7053 14.104 23.726 14.8213L23.4842 14.9984C22.874 15.4453 22.5411 16.178 22.606 16.9316L22.6322 17.2363C22.7369 18.4528 21.8159 19.5154 20.5968 19.5845L20.3426 19.5989C19.5803 19.6422 18.897 20.0836 18.5442 20.7608L18.4232 20.993C17.8552 22.0835 16.4943 22.483 15.4269 21.8725L15.2239 21.7564C14.5577 21.3754 13.7395 21.3754 13.0732 21.7564L12.8702 21.8725C11.8029 22.483 10.442 22.0835 9.87387 20.993L9.75288 20.7608C9.4001 20.0836 8.71685 19.6422 7.95451 19.5989L7.70032 19.5845C6.48123 19.5154 5.5602 18.4528 5.6649 17.2363L5.69113 16.9316C5.75598 16.178 5.42309 15.4453 4.81292 14.9984L4.57116 14.8213C3.5918 14.104 3.39305 12.722 4.13059 11.7578L4.32148 11.5083C4.77975 10.9092 4.89336 10.1148 4.62139 9.4113L4.50727 9.11608C4.06861 7.98134 4.65029 6.70797 5.79523 6.29663L6.05636 6.20282C6.77138 5.94593 7.29954 5.33319 7.44817 4.58809L7.50401 4.30815C7.74383 3.10593 8.93269 2.34216 10.1258 2.62379L10.3577 2.67854C11.1037 2.85463 11.8872 2.62337 12.418 2.07044L12.586 1.89541Z" fill="url(#paint0_linear_3483_54987)"/>
<path d="M12.586 1.89541C13.4384 1.00735 14.8587 1.00735 15.7112 1.89541L15.8792 2.07044C16.4099 2.62337 17.1934 2.85463 17.9394 2.67854L18.1713 2.62379C19.3644 2.34216 20.5533 3.10593 20.7931 4.30815L20.849 4.58809C20.9976 5.33319 21.5257 5.94593 22.2408 6.20282L22.5019 6.29663C23.6468 6.70797 24.2285 7.98134 23.7898 9.11609L23.6757 9.4113C23.4038 10.1148 23.5174 10.9092 23.9756 11.5083L24.1665 11.7578C24.9041 12.722 24.7053 14.104 23.726 14.8213L23.4842 14.9984C22.874 15.4453 22.5411 16.178 22.606 16.9316L22.6322 17.2363C22.7369 18.4528 21.8159 19.5154 20.5968 19.5845L20.3426 19.5989C19.5803 19.6422 18.897 20.0836 18.5442 20.7608L18.4232 20.993C17.8552 22.0835 16.4943 22.483 15.4269 21.8725L15.2239 21.7564C14.5577 21.3754 13.7395 21.3754 13.0732 21.7564L12.8702 21.8725C11.8029 22.483 10.442 22.0835 9.87387 20.993L9.75288 20.7608C9.4001 20.0836 8.71685 19.6422 7.95451 19.5989L7.70032 19.5845C6.48123 19.5154 5.5602 18.4528 5.6649 17.2363L5.69113 16.9316C5.75598 16.178 5.42309 15.4453 4.81292 14.9984L4.57116 14.8213C3.5918 14.104 3.39305 12.722 4.13059 11.7578L4.32148 11.5083C4.77975 10.9092 4.89336 10.1148 4.62139 9.4113L4.50727 9.11608C4.06861 7.98134 4.65029 6.70797 5.79523 6.29663L6.05636 6.20282C6.77138 5.94593 7.29954 5.33319 7.44817 4.58809L7.50401 4.30815C7.74383 3.10593 8.93269 2.34216 10.1258 2.62379L10.3577 2.67854C11.1037 2.85463 11.8872 2.62337 12.418 2.07044L12.586 1.89541Z" fill="url(#paint1_linear_3483_54987)" fill-opacity="0.1"/>
<path d="M6.271 11.7837C6.271 7.4331 9.79784 3.90625 14.1484 3.90625C18.499 3.90625 22.0258 7.43309 22.0258 11.7837V11.9457C22.0258 16.2963 18.499 19.8231 14.1484 19.8231C9.79784 19.8231 6.271 16.2963 6.271 11.9457V11.7837Z" fill="black" fill-opacity="0.04"/>
<path d="M14.1479 4.71484C18.0517 4.71484 21.217 7.87949 21.2173 11.7832V11.9453C21.2173 15.8492 18.0519 19.0146 14.1479 19.0146C10.2442 19.0144 7.07959 15.8491 7.07959 11.9453V11.7832C7.07985 7.87965 10.2444 4.7151 14.1479 4.71484Z" stroke="white" stroke-opacity="0.3" stroke-width="1.61748"/>
<path opacity="0.8" d="M12.8504 13.3034L11.3378 11.7753C11.2564 11.6929 11.1458 11.6465 11.0305 11.6465C10.9152 11.6465 10.8046 11.6929 10.7232 11.7753C10.5532 11.9471 10.5532 12.2245 10.7232 12.3963L12.5452 14.237C12.7152 14.4088 12.9898 14.4088 13.1598 14.237L17.7716 9.57786C17.9416 9.40611 17.9416 9.12868 17.7716 8.95693C17.6902 8.87447 17.5796 8.82812 17.4643 8.82812C17.349 8.82812 17.2384 8.87447 17.157 8.95693L12.8504 13.3034Z" fill="white" stroke="#FDFDFD" stroke-width="0.323496"/>
<path d="M22.1325 11.937C22.1325 16.3464 18.5579 19.9209 14.1486 19.9209C9.73918 19.9209 6.16467 16.3464 6.16467 11.937C6.16467 7.52764 9.73918 3.95312 14.1486 3.95312C18.5579 3.95312 22.1325 7.52764 22.1325 11.937ZM7.80836 11.937C7.80836 15.4386 10.647 18.2772 14.1486 18.2772C17.6502 18.2772 20.4888 15.4386 20.4888 11.937C20.4888 8.43542 17.6502 5.59682 14.1486 5.59682C10.647 5.59682 7.80836 8.43542 7.80836 11.937Z" fill="url(#paint2_linear_3483_54987)" fill-opacity="0.5"/>
</g>
<defs>
<filter id="filter0_d_3483_54987" x="-0.898008" y="-0.960713" width="30.0931" height="30.0924" filterUnits="userSpaceOnUse" color-interpolation-filters="sRGB">
<feFlood flood-opacity="0" result="BackgroundImageFix"/>
<feColorMatrix in="SourceAlpha" type="matrix" values="0 0 0 0 0 0 0 0 0 0 0 0 0 0 0 0 0 0 127 0" result="hardAlpha"/>
<feOffset dy="2.45658"/>
<feGaussianBlur stdDeviation="1.84244"/>
<feComposite in2="hardAlpha" operator="out"/>
<feColorMatrix type="matrix" values="0 0 0 0 0.917647 0 0 0 0 0.690196 0 0 0 0 0.12549 0 0 0 0.4 0"/>
<feBlend mode="normal" in2="BackgroundImageFix" result="effect1_dropShadow_3483_54987"/>
<feBlend mode="normal" in="SourceGraphic" in2="effect1_dropShadow_3483_54987" result="shape"/>
</filter>
<linearGradient id="paint0_linear_3483_54987" x1="6.77676" y1="2.39552" x2="19.2404" y2="22.041" gradientUnits="userSpaceOnUse">
<stop stop-color="#FFE092"/>
<stop offset="1" stop-color="#E3A302"/>
</linearGradient>
<linearGradient id="paint1_linear_3483_54987" x1="-1.11552" y1="-1.50769" x2="16.146" y2="29.3025" gradientUnits="userSpaceOnUse">
<stop stop-color="white"/>
<stop offset="1" stop-color="white" stop-opacity="0"/>
</linearGradient>
<linearGradient id="paint2_linear_3483_54987" x1="14.1486" y1="3.95312" x2="14.1486" y2="19.9209" gradientUnits="userSpaceOnUse">
<stop stop-color="white"/>
<stop offset="0.0001" stop-color="white" stop-opacity="0.81"/>
<stop offset="1" stop-color="white" stop-opacity="0"/>
</linearGradient>
</defs>
</svg>
